<svg xmlns="http://www.w3.org/2000/svg" viewBox="0 0 128 128" role="img" aria-labelledby="title desc"><title id="title">Kavita ka Kitchen</title><desc id="desc">An original K formed by a spoon and two leaves, resting in a kitchen bowl.</desc><rect width="128" height="128" rx="35" fill="#173f34"/><path d="M25 85h78c-4 23-19 32-39 32S29 108 25 85Z" fill="#f0a07c"/><path d="M41 73V42" stroke="#fff5dc" stroke-width="9" stroke-linecap="round"/><ellipse cx="41" cy="31" rx="10" ry="15" fill="#fff5dc"/><path d="M51 53c7-23 22-30 44-27-3 19-17 29-39 29Z" fill="#e6cc92"/><path d="M51 57c21-2 35 5 43 23-21 5-37-3-43-23Z" fill="#a9bd85"/><path d="M50 51 74 37M50 57l26 13" stroke="#173f34" stroke-width="3" stroke-linecap="round"/><path d="M50 101h28" stroke="#173f34" stroke-width="4" stroke-linecap="round"/></svg>
